<?xml version="1.0" standalone="no"?>
<!DOCTYPE svg PUBLIC "-//W3C//DTD SVG 20010904//EN"
 "http://www.w3.org/TR/2001/REC-SVG-20010904/DTD/svg10.dtd">
<svg version="1.0" xmlns="http://www.w3.org/2000/svg"
 viewBox="0 0 2396.000000 2401.000000">

<g transform="translate(0.000000,2401.000000) scale(0.100000,-0.100000)"
fill="#000000" stroke="none">
<path d="M19665 23994 c-456 -34 -820 -112 -1204 -256 -974 -364 -1784 -1111
-2236 -2062 -379 -798 -491 -1734 -305 -2561 16 -71 27 -131 26 -132 -2 -2
-68 35 -147 82 -242 145 -676 357 -1039 508 -1917 797 -4074 985 -6115 531
-2375 -528 -4489 -1904 -5952 -3874 -918 -1237 -1549 -2684 -1828 -4190 -249
-1349 -226 -2727 66 -4063 92 -422 180 -724 333 -1141 95 -258 115 -321 104
-331 -7 -6 -313 -189 -680 -405 -368 -217 -665 -397 -660 -401 10 -9 4035
-1429 4039 -1425 4 4 702 4230 699 4233 -1 2 -307 -178 -680 -398 -373 -220
-680 -399 -682 -396 -11 10 -78 224 -124 390 -308 1128 -360 2341 -149 3492
256 1400 879 2688 1823 3765 169 193 474 501 671 677 694 621 1502 1118 2371
1458 1653 648 3491 717 5191 194 930 -286 1826 -761 2588 -1373 509 -409 991
-907 1385 -1431 1506 -2008 1958 -4630 1215 -7043 -483 -1567 -1468 -2961
-2800 -3962 -1090 -819 -2411 -1348 -3765 -1509 -549 -65 -467 -64 -4778 -68
l-3932 -3 2 -1148 3 -1147 4065 0 c4235 0 4150 -1 4625 41 1674 147 3299 722
4715 1669 1020 682 1908 1541 2625 2540 469 654 877 1399 1175 2145 608 1520
839 3165 674 4810 -94 948 -330 1900 -686 2780 -79 193 -486 1033 -589 1213
-431 755 -980 1483 -1562 2071 -89 89 -214 208 -277 263 -378 330 -643 678
-831 1094 -380 839 -380 1786 0 2619 153 335 360 630 636 905 173 174 292 272
490 403 151 101 457 258 615 316 600 220 1213 262 1812 126 907 -206 1678
-808 2100 -1639 125 -248 223 -528 277 -801 51 -251 56 -314 56 -635 -1 -261
-4 -319 -23 -445 -89 -565 -306 -1065 -652 -1500 -185 -232 -579 -598 -609
-564 -4 5 -61 131 -127 281 -65 150 -121 272 -124 273 -6 0 -758 -1523 -755
-1528 3 -3 1626 -472 1636 -472 4 0 -24 71 -63 158 -39 86 -96 216 -128 288
l-57 131 114 78 c302 204 645 533 884 850 507 671 797 1471 827 2277 20 535
-46 1007 -208 1490 -317 941 -976 1735 -1850 2230 -484 274 -1028 448 -1595
508 -103 11 -541 21 -630 14z"/>
<path d="M4319 11940 c-119 -19 -197 -42 -289 -87 -167 -80 -286 -225 -336
-408 -26 -93 -31 -379 -9 -486 25 -128 73 -217 164 -309 101 -102 193 -148
500 -246 347 -112 418 -149 479 -253 25 -42 27 -56 30 -173 5 -168 -9 -221
-81 -293 -71 -71 -139 -96 -276 -103 -171 -8 -288 33 -378 132 -43 48 -113
174 -113 204 0 9 -6 12 -16 8 -17 -7 -387 -168 -392 -171 -1 -1 7 -31 19 -66
66 -203 215 -367 409 -450 248 -105 630 -99 875 15 169 79 279 202 341 381 26
76 28 92 32 290 5 293 -17 387 -124 526 -103 135 -220 194 -651 333 -208 67
-261 92 -328 160 -65 65 -80 114 -80 256 1 122 13 167 63 222 49 54 107 86
188 103 128 27 239 13 323 -39 74 -47 148 -148 185 -252 l11 -31 190 88 c217
101 206 87 158 206 -85 213 -258 367 -478 424 -91 24 -321 34 -416 19z"/>
<path d="M13520 10555 l0 -1365 215 0 214 0 3 118 3 117 26 -45 c88 -148 260
-233 439 -214 213 21 370 149 440 358 41 126 50 236 50 651 0 480 -11 570 -86
724 -66 134 -190 232 -333 262 -76 16 -204 7 -271 -20 -90 -35 -176 -110 -252
-221 -16 -24 -17 2 -17 488 l-1 512 -215 0 -215 0 0 -1365z m791 210 c57 -20
112 -75 139 -137 33 -78 42 -206 37 -533 -5 -333 -11 -369 -70 -447 -48 -62
-111 -91 -200 -91 -89 0 -147 24 -198 80 -64 71 -64 73 -64 538 l0 420 24 45
c38 74 79 109 151 131 43 13 136 10 181 -6z"/>
<path d="M15340 10791 c0 -1240 0 -1240 60 -1366 33 -68 112 -150 178 -184 71
-36 157 -51 305 -51 l137 0 0 205 0 205 -71 0 c-93 0 -135 20 -160 74 -18 39
-19 92 -19 1144 l0 1102 -215 0 -215 0 0 -1129z"/>
<path d="M6235 11160 c-167 -27 -274 -78 -380 -185 -88 -87 -127 -154 -166
-285 -22 -71 -23 -95 -27 -475 -4 -439 1 -509 48 -636 108 -295 392 -445 775
-409 296 27 466 147 540 382 40 128 53 113 -170 190 l-194 66 -16 -53 c-21
-72 -69 -133 -130 -164 -41 -20 -64 -25 -130 -25 -136 1 -228 58 -271 170 -17
45 -19 80 -19 434 0 384 0 385 24 438 50 110 158 169 293 160 116 -9 195 -75
233 -196 15 -46 20 -52 39 -46 11 3 99 31 194 62 198 65 189 53 146 180 -67
202 -192 321 -391 373 -90 24 -302 34 -398 19z"/>
<path d="M8192 11154 c-95 -25 -163 -66 -243 -144 -42 -41 -85 -88 -97 -105
l-21 -30 -1 133 0 132 -220 0 -220 0 0 -975 0 -975 220 0 220 0 0 624 c0 598
1 627 20 689 41 131 145 217 291 237 75 11 179 -1 216 -25 13 -9 28 -14 31
-10 3 3 36 93 73 199 l66 192 -33 23 c-18 13 -50 29 -71 37 -49 17 -164 17
-231 -2z"/>
<path d="M11398 11147 c-113 -39 -211 -119 -277 -227 l-21 -35 0 128 0 127
-215 0 -215 0 0 -975 0 -975 215 0 214 0 3 698 3 697 24 47 c47 95 142 144
265 136 120 -7 197 -69 234 -187 15 -51 17 -119 16 -723 l0 -668 217 0 218 0
3 698 c3 765 0 725 64 801 48 57 97 76 199 76 103 0 149 -18 203 -80 71 -80
67 -35 70 -802 l3 -693 215 0 215 0 -3 753 -3 752 -28 90 c-38 121 -71 179
-140 247 -93 93 -207 138 -352 138 -184 0 -346 -95 -450 -264 -22 -36 -42 -65
-45 -65 -3 0 -19 30 -37 67 -38 79 -117 165 -189 204 -112 61 -286 75 -406 35z"/>
<path d="M8813 10398 c3 -725 4 -745 25 -825 29 -111 70 -189 136 -260 84 -91
181 -134 331 -148 185 -17 342 66 436 230 l29 50 0 -127 0 -128 215 0 215 0 0
975 0 975 -215 0 -215 0 0 -683 c0 -741 0 -741 -55 -813 -46 -60 -95 -79 -210
-79 -90 0 -104 3 -145 27 -53 31 -82 68 -104 132 -14 41 -16 130 -16 731 l0
685 -216 0 -215 0 4 -742z"/>
<path d="M16180 11133 c0 -5 140 -433 310 -952 l310 -945 -31 -115 c-74 -276
-113 -319 -296 -329 l-93 -5 0 -205 0 -205 138 6 c310 12 434 104 521 386 39
125 673 2290 686 2344 l7 27 -208 -2 -209 -3 -170 -624 -170 -624 -26 84 c-14
46 -99 328 -190 626 l-164 543 -207 0 c-115 0 -208 -3 -208 -7z"/>
</g>
</svg>
